<svg xmlns="http://www.w3.org/2000/svg" xmlns:svg="http://www.w3.org/2000/svg" id="svg5" width="210mm" height="297mm" version="1.1" viewBox="0 0 210 297"><g id="layer1"><rect style="fill:#a4b9ef;fill-opacity:1;stroke-width:.264583" id="rect976" width="512.287" height="271.379" x="-37.454" y="42.253" ry="7.616"/><g id="g1693"><rect style="fill:#1e1e28;fill-opacity:1;stroke-width:.224708" id="rect976-3" width="447.962" height="223.852" x="-3.378" y="66.017" ry="7.794"/><rect style="fill:#1b1923;fill-opacity:1;stroke-width:.116208" id="rect976-3-6" width="119.806" height="223.852" x="-5.513" y="66.155" ry="7.794"/><rect style="fill:#6e6c7e;fill-opacity:1;fill-rule:evenodd;stroke-width:.164914" id="rect438-9-2-6-8" width="80.664" height="11.074" x="127.369" y="89.025" ry="4.488"/><rect style="fill:#bee4ed;fill-opacity:1;fill-rule:evenodd;stroke-width:.0625542" id="rect438-9-2-6-8-3-6-1-0" width="11.606" height="11.074" x="240.572" y="143.929" ry="4.488"/><rect style="fill:#ebddaa;fill-opacity:1;fill-rule:evenodd;stroke-width:.0798998" id="rect438-9-2-6-8-94-7-8" width="18.935" height="11.074" x="216.734" y="126.014" ry="4.488"/><rect style="fill:#f2cecf;fill-opacity:1;fill-rule:evenodd;stroke-width:.139363" id="rect438-9-2-6-8-94-7" width="57.605" height="11.074" x="150.281" y="125.647" ry="4.488"/><rect style="fill:#bee4ed;fill-opacity:1;fill-rule:evenodd;stroke-width:.0539507" id="rect438-9-2-6-8-94-7-1" width="8.633" height="11.074" x="267.197" y="217.103" ry="3.779"/><rect style="fill:#e38c8f;fill-opacity:1;fill-rule:evenodd;stroke-width:.0682052" id="rect438-9-2-6-8-94" width="13.798" height="11.074" x="127.394" y="125.653" ry="4.488"/><rect style="fill:#6e6c7e;fill-opacity:1;fill-rule:evenodd;stroke-width:.190885" id="rect438-9-2-6-8-9-7-3-6" width="108.071" height="11.074" x="127.369" y="162.315" ry="4.488"/><rect style="fill:#6e6c7e;fill-opacity:1;fill-rule:evenodd;stroke-width:.190885" id="rect438-9-2-6-8-9-7-3-1" width="108.071" height="11.074" x="127.369" y="180.638" ry="4.488"/><rect style="fill:#f2cecf;fill-opacity:1;fill-rule:evenodd;stroke-width:.129411" id="rect438-9-2-6-8-3-6" width="49.672" height="11.074" x="244.37" y="199.132" ry="4.488"/><rect style="fill:#a4b9ef;fill-opacity:1;fill-rule:evenodd;stroke-width:.174033" id="rect438-9-2-6-8-3" width="89.831" height="11.074" x="147.744" y="198.929" ry="4.488"/><rect style="fill:#a4b9ef;fill-opacity:1;fill-rule:evenodd;stroke-width:.104974" id="rect438-9-2-6-8-3-3-7" width="32.683" height="11.074" x="13.178" y="108.141" ry="4.488"/><rect style="fill:#a4b9ef;fill-opacity:1;fill-rule:evenodd;stroke-width:.104974" id="rect438-9-2-6-8-3-3-7-4" width="32.683" height="11.074" x="27.994" y="138.797" ry="4.488"/><rect style="fill:#e5b4e2;fill-opacity:1;fill-rule:evenodd;stroke-width:.0633174" id="rect438-9-2-6-8-94-7-8-4" width="11.891" height="11.074" x="127.497" y="198.959" ry="4.488"/><rect style="fill:#d7dae0;fill-opacity:1;fill-rule:evenodd;stroke-width:.169967" id="rect438-9-2-6-8-3-6-1" width="85.683" height="11.074" x="146.68" y="144.014" ry="4.488"/><rect style="fill:#b1e3ad;fill-opacity:1;fill-rule:evenodd;stroke-width:.125209" id="rect438-9-2-6-8-3-6-1-5-7" width="46.499" height="11.074" x="27.966" y="123.469" ry="4.488"/><rect style="fill:#c6aae8;fill-opacity:1;fill-rule:evenodd;stroke-width:.108629" id="rect438-9-2-6-8-3-6-1-5-7-4" width="34.999" height="11.074" x="42.182" y="154.125" ry="4.488"/><rect style="fill:#e38c8f;fill-opacity:1;fill-rule:evenodd;stroke-width:.139278" id="rect438-9-2-6-8-3-6-1-5-2" width="57.535" height="11.074" x="13.452" y="200.109" ry="4.488"/><rect style="fill:#ebddaa;fill-opacity:.941176;fill-rule:evenodd;stroke-width:.124294" id="rect438-9-2-6-8-3-6-1-5-2-5" width="45.821" height="11.074" x="13.488" y="184.781" ry="4.488"/><rect style="fill:#f2cecf;fill-opacity:1;fill-rule:evenodd;stroke-width:.134862" id="rect438-9-2-6-8-3-6-1-5-2-5-4" width="53.944" height="11.074" x="13.13" y="169.453" ry="4.488"/><rect style="fill:#b1e3ad;fill-opacity:1;fill-rule:evenodd;stroke-width:.188173" id="rect438-9-2-6-8-3-6-1-3" width="105.022" height="11.074" x="260.471" y="144.057" ry="4.488"/><rect style="fill:#b1e3ad;fill-opacity:1;fill-rule:evenodd;stroke-width:.126609" id="rect438-9-2-6-8-3-6-1-3-5" width="47.544" height="11.074" x="280.182" y="216.986" ry="4.488"/><rect style="fill:#e38c8f;fill-opacity:1;fill-rule:evenodd;stroke-width:.0682052" id="rect438-9-2-6-8-94-0-6" width="13.798" height="11.074" x="127.435" y="143.882" ry="4.488"/><rect style="fill:#d7dae0;fill-opacity:1;fill-rule:evenodd;stroke-width:.169967" id="rect438-9-2-6-8-3-6-1-6" width="85.683" height="11.074" x="175.91" y="217.149" ry="4.488"/><rect style="fill:#e38c8f;fill-opacity:1;fill-rule:evenodd;stroke-width:.0802608" id="rect438-9-2-6-8-9-7-3-6-2" width="19.106" height="11.074" x="148.941" y="217.257" ry="4.488"/><rect style="fill:#e38c8f;fill-opacity:1;fill-rule:evenodd;stroke-width:.0802608" id="rect438-9-2-6-8-9-7-3-6-2-5" width="19.106" height="11.074" x="333.542" y="217.238" ry="4.488"/><rect style="fill:#e5b4e2;fill-opacity:1;fill-rule:evenodd;stroke-width:.134098" id="rect438-9-2-6-8-9-4" width="53.335" height="11.074" x="175.939" y="235.529" ry="4.488"/><rect style="fill:#e5b4e2;fill-opacity:1;fill-rule:evenodd;stroke-width:.134098" id="rect438-9-2-6-8-9-4-9" width="53.335" height="11.074" x="27.723" y="77.295" ry="4.488"/><rect style="fill:#f9c096;fill-opacity:1;fill-rule:evenodd;stroke-width:.111873" id="rect438-9-2-6-8-9-4-7" width="37.121" height="11.074" x="236.305" y="235.506" ry="4.488"/><rect style="fill:#e5b4e2;fill-opacity:1;fill-rule:evenodd;stroke-width:.0820694" id="rect438-9-2-6-8-94-7-8-4-5" width="19.977" height="11.074" x="127.398" y="271.827" ry="4.488"/><rect style="fill:#e38c8f;fill-opacity:1;fill-rule:evenodd;stroke-width:.0802608" id="rect438-9-2-6-8-9-7-3-6-2-0" width="19.106" height="11.074" x="148.615" y="253.955" ry="4.488"/><rect style="fill:#332e41;fill-opacity:1;stroke-width:.0485522" id="rect976-3-6-7" width="330.277" height="14.174" x="114.312" y="65.975" ry="4.692"/><rect style="fill:#1e1e28;fill-opacity:1;stroke-width:.0266835" id="rect976-3-6-7-6" width="77.254" height="18.303" x="130.711" y="65.996" ry="4.846"/></g></g></svg>